<mxfile host="app.diagrams.net" modified="2024-03-20T16:26:16.199Z" agent="Mozilla/5.0 (X11; Ubuntu; Linux x86_64; rv:123.0) Gecko/20100101 Firefox/123.0" version="24.0.5" etag="GetxeB2IDtmSX87w_CCn" type="github">
  <diagram name="Page-1" id="W-foaCdrFvxLO5kR-0uf">
    <mxGraphModel>
      <root>
        <mxCell id="0" />
        <mxCell id="1" parent="0" />
      </root>
    </mxGraphModel>
  </diagram>
</mxfile>
